<svg width="49" height="48" viewBox="0 0 49 48" fill="none" xmlns="http://www.w3.org/2000/svg">
<rect x="1.16669" y="0.5" width="47" height="47" rx="3.5" stroke="#E0E0E0"/>
<path d="M24.2947 12.0988C24.408 12.034 24.5362 12 24.6667 12C24.7972 12 24.9254 12.034 25.0387 12.0988L30.6637 15.3133C30.7785 15.3788 30.8739 15.4736 30.9403 15.5879C31.0067 15.7022 31.0416 15.8321 31.0417 15.9643V21.9568L36.2887 24.9568C36.403 25.0221 36.4982 25.1164 36.5645 25.2301C36.6309 25.3439 36.6661 25.4731 36.6667 25.6048V32.0338C36.6666 32.166 36.6317 32.2958 36.5653 32.4101C36.4989 32.5244 36.4035 32.6192 36.2887 32.6848L30.6637 35.8993C30.5504 35.964 30.4222 35.998 30.2917 35.998C30.1612 35.998 30.033 35.964 29.9197 35.8993L24.6667 32.8993L19.4137 35.9008C19.3004 35.9655 19.1722 35.9995 19.0417 35.9995C18.9112 35.9995 18.783 35.9655 18.6697 35.9008L13.0447 32.6863C12.9299 32.6207 12.8345 32.5259 12.7681 32.4116C12.7017 32.2973 12.6667 32.1675 12.6667 32.0353V25.6063C12.6667 25.4741 12.7017 25.3442 12.7681 25.2299C12.8345 25.1156 12.9299 25.0208 13.0447 24.9553L18.2917 21.9568V15.9643C18.2917 15.8321 18.3267 15.7022 18.3931 15.5879C18.4595 15.4736 18.5549 15.3788 18.6697 15.3133L24.2947 12.0988ZM19.0417 23.2558L14.9287 25.6063L19.0417 27.9568L23.1547 25.6063L19.0417 23.2558ZM23.9167 26.8993L19.7917 29.2558V33.9568L23.9167 31.6003V26.8993ZM25.4167 31.6003L29.5417 33.9568V29.2558L25.4167 26.8993V31.6003ZM26.1787 25.6063L30.2917 27.9568L34.4047 25.6063L30.2917 23.2558L26.1787 25.6063ZM29.5417 21.9568V17.2558L25.4167 19.6138V24.3148L29.5417 21.9568ZM23.9167 24.3148V19.6138L19.7917 17.2558V21.9568L23.9167 24.3148ZM20.5537 15.9643L24.6667 18.3148L28.7797 15.9643L24.6667 13.6138L20.5537 15.9643ZM35.1667 26.8993L31.0417 29.2558V33.9568L35.1667 31.6003V26.8993ZM18.2917 33.9568V29.2558L14.1667 26.8993V31.6003L18.2917 33.9568Z" fill="#E51E27"/>
</svg>
