<svg width="49" height="48" viewBox="0 0 49 48" fill="none" xmlns="http://www.w3.org/2000/svg">
<rect x="0.833252" y="0.5" width="47" height="47" rx="3.5" stroke="#E0E0E0"/>
<path d="M35.9486 20.0637C37.4439 18.5684 36.7621 16.8219 35.9486 15.9726L32.3599 12.3839C30.8527 10.8886 29.1181 11.5705 28.2688 12.3839L26.2352 14.4295H23.137C20.8641 14.4295 19.5483 15.6257 18.8784 17.0014L13.5671 22.3127V27.0976L12.7178 27.935C11.2225 29.4422 11.9043 31.1768 12.7178 32.0261L16.3065 35.6148C16.9524 36.2608 17.6463 36.5 18.3042 36.5C19.1535 36.5 19.9311 36.0813 20.3976 35.6148L23.6274 32.373H27.9219C29.9555 32.373 30.9843 31.105 31.3551 29.8609C32.7069 29.502 33.4485 28.4733 33.7476 27.4684C35.6017 26.9899 36.2956 25.2315 36.2956 23.9993V20.4106H35.5898L35.9486 20.0637ZM33.9031 23.9993C33.9031 24.5377 33.6758 25.1956 32.7069 25.1956H31.5106V26.3918C31.5106 26.9301 31.2833 27.588 30.3144 27.588H29.1181V28.7843C29.1181 29.3226 28.8909 29.9805 27.9219 29.9805H22.6465L18.7229 33.9042C18.352 34.2511 18.1367 34.0477 18.0051 33.9161L14.4284 30.3514C14.0815 29.9805 14.2848 29.7652 14.4164 29.6336L15.9596 28.0785V23.2936L18.352 20.9011V22.8031C18.352 24.2506 19.309 26.3918 21.9407 26.3918C24.5725 26.3918 25.5294 24.2506 25.5294 22.8031H33.9031V23.9993ZM34.25 18.3651L32.2164 20.4106H23.137V22.8031C23.137 23.3414 22.9097 23.9993 21.9407 23.9993C20.9718 23.9993 20.7445 23.3414 20.7445 22.8031V19.2144C20.7445 18.6641 20.9479 16.8219 23.137 16.8219H27.2161L29.9435 14.0945C30.3144 13.7476 30.5297 13.951 30.6613 14.0826L34.238 17.6473C34.5849 18.0182 34.3816 18.2335 34.25 18.3651Z" fill="#E51E27"/>
</svg>
