<svg width="48" height="49" viewBox="0 0 48 49" fill="none" xmlns="http://www.w3.org/2000/svg">
<rect x="0.5" y="1.43408" width="47" height="47" rx="3.5" stroke="#383838"/>
<path d="M30.3981 33.6897H30.1681C27.5767 33.4089 25.0869 32.5253 22.8981 31.1097C20.8647 29.8138 19.138 28.0906 17.8381 26.0597C16.4196 23.865 15.5359 21.3681 15.2581 18.7697C15.2263 18.4598 15.2577 18.1467 15.3506 17.8493C15.4434 17.5519 15.5957 17.2765 15.7981 17.0397C15.9951 16.7998 16.2382 16.6018 16.513 16.4575C16.7878 16.3132 17.0888 16.2256 17.3981 16.1997H19.9981C20.5613 16.2003 21.1056 16.4022 21.5329 16.7689C21.9602 17.1357 22.2422 17.6432 22.3281 18.1997C22.4232 18.9146 22.601 19.6159 22.8581 20.2897C23.0146 20.7131 23.0469 21.1723 22.9512 21.6134C22.8555 22.0546 22.6359 22.4592 22.3181 22.7797L21.7081 23.3897C22.6686 24.9059 23.9569 26.1874 25.4781 27.1397L26.0881 26.5397C26.4087 26.2219 26.8133 26.0023 27.2544 25.9066C27.6955 25.811 28.1548 25.8433 28.5781 25.9997C29.2527 26.2543 29.9538 26.4321 30.6681 26.5297C31.2342 26.6148 31.7497 26.9035 32.1179 27.3417C32.4862 27.7799 32.6818 28.3375 32.6681 28.9097V31.3097C32.6681 31.9339 32.4209 32.5327 31.9805 32.975C31.54 33.4173 30.9423 33.6671 30.3181 33.6697L30.3981 33.6897ZM19.9981 17.6897H17.6081C17.4908 17.6975 17.3762 17.7289 17.2714 17.7822C17.1665 17.8355 17.0736 17.9095 16.9981 17.9997C16.9247 18.0842 16.8691 18.1827 16.8348 18.2893C16.8004 18.3958 16.7879 18.5082 16.7981 18.6197C17.0417 20.9762 17.8328 23.2432 19.1081 25.2397C20.2848 27.0864 21.8515 28.6531 23.6981 29.8297C25.6954 31.1195 27.9651 31.9275 30.3281 32.1897C30.451 32.196 30.5738 32.1771 30.689 32.1341C30.8043 32.0911 30.9095 32.0249 30.9981 31.9397C31.1574 31.7764 31.247 31.5578 31.2481 31.3297V28.9397C31.2526 28.7293 31.1798 28.5245 31.0434 28.3641C30.907 28.2038 30.7166 28.099 30.5081 28.0697C29.682 27.9588 28.8704 27.7576 28.0881 27.4697C27.934 27.4121 27.7667 27.3993 27.6056 27.433C27.4446 27.4666 27.2963 27.5452 27.1781 27.6597L26.1781 28.6597C26.061 28.7739 25.9102 28.8473 25.748 28.8689C25.5859 28.8905 25.4211 28.8592 25.2781 28.7797C23.1443 27.5739 21.3781 25.8112 20.1681 23.6797C20.0853 23.5377 20.0522 23.3721 20.0739 23.2091C20.0956 23.0462 20.171 22.8951 20.2881 22.7797L21.2881 21.7797C21.4028 21.6637 21.4817 21.5172 21.5154 21.3576C21.5491 21.198 21.5362 21.0321 21.4781 20.8797C21.1895 20.0976 20.9883 19.286 20.8781 18.4597C20.8533 18.245 20.7495 18.0472 20.5868 17.9048C20.4241 17.7625 20.2143 17.6858 19.9981 17.6897Z" fill="#2E2E2E"/>
</svg>
