<svg width="48" height="49" viewBox="0 0 48 49" fill="none" xmlns="http://www.w3.org/2000/svg">
<rect x="0.5" y="1.43408" width="47" height="47" rx="3.5" stroke="#383838"/>
<path d="M31.05 17.8441C30.1331 16.9182 29.041 16.1841 27.8375 15.6845C26.634 15.1849 25.3431 14.9298 24.04 14.9341C18.58 14.9341 14.13 19.3841 14.13 24.8441C14.13 26.5941 14.59 28.2941 15.45 29.7941L14.05 34.9341L19.3 33.5541C20.75 34.3441 22.38 34.7641 24.04 34.7641C29.5 34.7641 33.95 30.3141 33.95 24.8541C33.95 22.2041 32.92 19.7141 31.05 17.8441ZM24.04 33.0841C22.56 33.0841 21.11 32.6841 19.84 31.9341L19.54 31.7541L16.42 32.5741L17.25 29.5341L17.05 29.2241C16.2275 27.9112 15.7909 26.3934 15.79 24.8441C15.79 20.3041 19.49 16.6041 24.03 16.6041C26.23 16.6041 28.3 17.4641 29.85 19.0241C30.6176 19.788 31.2259 20.6967 31.6396 21.6975C32.0533 22.6983 32.2642 23.7712 32.26 24.8541C32.28 29.3941 28.58 33.0841 24.04 33.0841ZM28.56 26.9241C28.31 26.8041 27.09 26.2041 26.87 26.1141C26.64 26.0341 26.48 25.9941 26.31 26.2341C26.14 26.4841 25.67 27.0441 25.53 27.2041C25.39 27.3741 25.24 27.3941 24.99 27.2641C24.74 27.1441 23.94 26.8741 23 26.0341C22.26 25.3741 21.77 24.5641 21.62 24.3141C21.48 24.0641 21.6 23.9341 21.73 23.8041C21.84 23.6941 21.98 23.5141 22.1 23.3741C22.22 23.2341 22.27 23.1241 22.35 22.9641C22.43 22.7941 22.39 22.6541 22.33 22.5341C22.27 22.4141 21.77 21.1941 21.57 20.6941C21.37 20.2141 21.16 20.2741 21.01 20.2641H20.53C20.36 20.2641 20.1 20.3241 19.87 20.5741C19.65 20.8241 19.01 21.4241 19.01 22.6441C19.01 23.8641 19.9 25.0441 20.02 25.2041C20.14 25.3741 21.77 27.8741 24.25 28.9441C24.84 29.2041 25.3 29.3541 25.66 29.4641C26.25 29.6541 26.79 29.6241 27.22 29.5641C27.7 29.4941 28.69 28.9641 28.89 28.3841C29.1 27.8041 29.1 27.3141 29.03 27.2041C28.96 27.0941 28.81 27.0441 28.56 26.9241Z" fill="#2E2E2E"/>
</svg>
