<svg width="48" height="49" viewBox="0 0 48 49" fill="none" xmlns="http://www.w3.org/2000/svg">
<rect x="0.5" y="1.43408" width="47" height="47" rx="3.5" stroke="#383838"/>
<path d="M33.75 16.6841H14.25C13.8352 16.6841 13.5 17.0192 13.5 17.4341V32.4341C13.5 32.8489 13.8352 33.1841 14.25 33.1841H33.75C34.1648 33.1841 34.5 32.8489 34.5 32.4341V17.4341C34.5 17.0192 34.1648 16.6841 33.75 16.6841ZM32.8125 19.281V31.4966H15.1875V19.281L14.5406 18.7771L15.4617 17.5935L16.4648 18.3739H31.5375L32.5406 17.5935L33.4617 18.7771L32.8125 19.281ZM31.5375 18.3716L24 24.231L16.4625 18.3716L15.4594 17.5911L14.5383 18.7747L15.1852 19.2786L23.1914 25.5036C23.4217 25.6825 23.7049 25.7796 23.9965 25.7796C24.2881 25.7796 24.5713 25.6825 24.8016 25.5036L32.8125 19.281L33.4594 18.7771L32.5383 17.5935L31.5375 18.3716Z" fill="#2E2E2E"/>
</svg>
