<svg width="48" height="48" viewBox="0 0 48 48" fill="none" xmlns="http://www.w3.org/2000/svg">
<rect x="0.5" y="0.5" width="47" height="47" rx="3.5" stroke="#E0E0E0"/>
<path d="M17.6711 29.6666H21.4982H26.3884H30.1021M17.6711 18.3475H21.4982H26.3884H30.1021M21.073 29.6666H25.9632H29.7903H30.1021M21.073 18.3475H25.9632H29.7903H30.1021M14.6661 22.725V25.2466M26.6435 22.725V25.2466M30.1021 18.3475H30.2155H33.3623M30.1021 18.3475L26.9554 18.3333H14.3967H11.251C11.2504 18.3333 11.25 18.3338 11.25 18.3343V21.1666V22.4841V26.8333V29.6656C11.25 29.6662 11.2504 29.6666 11.251 29.6666H14.3967H26.9554H30.1021M30.1021 18.3475V21.1666V22.4841V25.5016V26.8333V29.6666M30.1021 18.3475H33.3623M30.1021 29.6666H30.2155H33.3623M30.1021 29.6666H33.3623M33.3623 18.3475H33.6174H36.749C36.7496 18.3475 36.75 18.3479 36.75 18.3485V21.1666V22.47V25.5016V26.8333V29.6656C36.75 29.6662 36.7496 29.6666 36.749 29.6666H33.6174H33.3623M33.3623 18.3475V21.1666V22.47V25.5016V26.8333V29.6666M21.3139 25.7566C22.4337 25.4025 23.0574 24.2125 22.703 23.0933C22.3487 21.9741 21.158 21.3508 20.0382 21.705C18.9184 22.0591 18.2947 23.2491 18.6491 24.3683C19.0035 25.4875 20.1941 26.1108 21.3139 25.7566Z" stroke="#E51E27" stroke-width="1.8" stroke-miterlimit="10" stroke-linecap="round"/>
</svg>
