<svg width="48" height="48" viewBox="0 0 48 48" fill="none" xmlns="http://www.w3.org/2000/svg">
<rect x="0.5" y="0.5" width="47" height="47" rx="3.5" stroke="#E0E0E0"/>
<path d="M36.0416 23.9858H32.3441H30.375V22.0166V20.0475H32.3441H36.0416M36.0416 23.9858V27.2441V31.0833H31.8908H21.1099M36.0416 23.9858H37.4583V22.0166V20.0475H36.0416M36.0416 20.0475V17.9225V14.0833H31.8908H17.5258H13.375V17.9225V23.3483M14.0975 28.25L15.9674 29.6383L17.8516 26.805M16.2083 33.9166C13.0775 33.9166 10.5416 31.3808 10.5416 28.25C10.5416 25.1191 13.0775 22.5833 16.2083 22.5833C19.3391 22.5833 21.875 25.1191 21.875 28.25C21.875 31.3808 19.3391 33.9166 16.2083 33.9166Z" stroke="#E51E27" stroke-width="1.8" stroke-miterlimit="10" stroke-linecap="round" stroke-linejoin="round"/>
</svg>
