<svg width="48" height="48" viewBox="0 0 48 48" fill="none" xmlns="http://www.w3.org/2000/svg">
<rect width="48" height="48" rx="4" fill="#E51E27"/>
<path d="M19.506 27.265C19.5323 27.36 19.577 27.4488 19.6376 27.5265C19.6982 27.6042 19.7735 27.6691 19.8592 27.7177C19.9449 27.7663 20.0394 27.7975 20.1371 27.8095C20.2349 27.8216 20.3341 27.8143 20.429 27.788C20.524 27.7618 20.6128 27.7171 20.6905 27.6565C20.7681 27.5959 20.8331 27.5206 20.8817 27.4348C20.9302 27.3491 20.9615 27.2547 20.9735 27.1569C20.9856 27.0592 20.9783 26.96 20.952 26.865L19.506 27.265ZM15.2 16.725C15.1047 16.6972 15.0048 16.6886 14.9061 16.6996C14.8074 16.7107 14.7119 16.7413 14.6252 16.7895C14.5384 16.8378 14.4621 16.9028 14.4006 16.9808C14.3392 17.0588 14.2938 17.1483 14.2672 17.2439C14.2406 17.3396 14.2332 17.4396 14.2456 17.5381C14.2579 17.6367 14.2897 17.7318 14.3391 17.8179C14.3884 17.9041 14.4544 17.9796 14.5332 18.04C14.612 18.1004 14.702 18.1446 14.798 18.17L15.2 16.725ZM32.188 27.725C32.2857 27.7024 32.3778 27.6605 32.459 27.6017C32.5402 27.5429 32.6087 27.4685 32.6607 27.3827C32.7126 27.297 32.7468 27.2017 32.7612 27.1025C32.7757 27.0033 32.7701 26.9022 32.7448 26.8052C32.7196 26.7082 32.6751 26.6173 32.6141 26.5378C32.5531 26.4582 32.4767 26.3918 32.3896 26.3422C32.3025 26.2927 32.2063 26.2612 32.1067 26.2494C32.0072 26.2377 31.9063 26.2461 31.81 26.274L32.188 27.725ZM22.197 29.559C22.507 30.679 21.827 31.862 20.623 32.175L21 33.626C22.977 33.113 24.185 31.124 23.643 29.159L22.197 29.559ZM20.623 32.175C19.411 32.49 18.195 31.786 17.883 30.656L16.437 31.056C16.977 33.011 19.031 34.138 21 33.626L20.623 32.175ZM17.883 30.656C17.573 29.536 18.253 28.353 19.457 28.04L19.08 26.59C17.103 27.103 15.894 29.091 16.437 31.056L17.883 30.656ZM19.457 28.04C20.669 27.725 21.885 28.429 22.197 29.559L23.643 29.159C23.103 27.204 21.049 26.077 19.08 26.589L19.457 28.04ZM20.952 26.865L18.8 19.075L17.354 19.475L19.506 27.265L20.952 26.865ZM16.904 17.197L15.2 16.725L14.798 18.17L16.503 18.643L16.904 17.197ZM18.8 19.075C18.6729 18.625 18.4315 18.2156 18.0992 17.8865C17.767 17.5574 17.3552 17.3199 16.904 17.197L16.505 18.643C16.93 18.761 17.246 19.084 17.354 19.475L18.8 19.075ZM23.11 30.085L32.188 27.725L31.811 26.274L22.732 28.634L23.11 30.085Z" fill="white"/>
<path d="M21.5651 20.73C21.0801 18.975 20.8381 18.097 21.2501 17.406C21.6611 16.714 22.5661 16.479 24.3761 16.008L26.2961 15.51C28.1061 15.04 29.0111 14.804 29.7241 15.203C30.4371 15.603 30.6801 16.48 31.1641 18.236L31.6791 20.098C32.1641 21.853 32.4071 22.731 31.9951 23.423C31.5831 24.114 30.6781 24.35 28.8681 24.82L26.9481 25.319C25.1381 25.789 24.2331 26.024 23.5201 25.625C22.8071 25.225 22.5651 24.348 22.0801 22.593L21.5651 20.73Z" stroke="white" stroke-width="1.5"/>
</svg>
