<svg width="48" height="48" viewBox="0 0 48 48" fill="none" xmlns="http://www.w3.org/2000/svg">
<rect x="0.5" y="0.5" width="47" height="47" rx="3.5" stroke="#E0E0E0"/>
<path d="M19.8593 19.6103H28.3532M19.8593 23.8598H28.3532M19.8593 28.1093H28.3532M33.9167 14.4259V36.2824V36.8868C33.9167 36.8876 33.9158 36.8881 33.9151 36.8876L33.4779 36.5941L29.8962 34.0869C29.3441 33.6903 28.5939 33.6903 28.0276 34.0586L24.9273 36.1266C24.3752 36.4949 23.6532 36.4949 23.1011 36.1266L20.0008 34.0586C19.4345 33.6761 18.6984 33.6903 18.1463 34.0727L14.5222 36.5941L14.0849 36.8876C14.0843 36.8881 14.0834 36.8876 14.0834 36.8868V36.2824V14.4259V11.1123C14.0834 11.1118 14.0838 11.1113 14.0844 11.1113H17.3819H30.5899H33.9157C33.9163 11.1113 33.9167 11.1118 33.9167 11.1123V14.4259Z" stroke="#E51E27" stroke-width="1.8" stroke-miterlimit="10" stroke-linecap="round"/>
</svg>
